<svg xmlns="http://www.w3.org/2000/svg" xmlns:xlink="http://www.w3.org/1999/xlink" width="1062" zoomAndPan="magnify" viewBox="0 0 796.5 588.749988" height="785" preserveAspectRatio="xMidYMid meet" version="1.0"><defs><clipPath id="3921a656e2"><path d="M 0 0.0585938 L 796 0.0585938 L 796 588.441406 L 0 588.441406 Z M 0 0.0585938 " clip-rule="nonzero"/></clipPath><clipPath id="b420aa0071"><path d="M 117.976562 410.324219 L 229.65625 410.324219 L 229.65625 522.003906 L 117.976562 522.003906 Z M 117.976562 410.324219 " clip-rule="nonzero"/></clipPath><clipPath id="1cef667e4a"><path d="M 173.886719 410.324219 C 143.007812 410.324219 117.976562 435.355469 117.976562 466.234375 C 117.976562 497.113281 143.007812 522.144531 173.886719 522.144531 C 204.765625 522.144531 229.796875 497.113281 229.796875 466.234375 C 229.796875 435.355469 204.765625 410.324219 173.886719 410.324219 Z M 173.886719 410.324219 " clip-rule="nonzero"/></clipPath><clipPath id="691c79d8e9"><path d="M 278 0.0585938 L 796 0.0585938 L 796 556 L 278 556 Z M 278 0.0585938 " clip-rule="nonzero"/></clipPath><clipPath id="932aad6526"><path d="M 12 0.0585938 L 590 0.0585938 L 590 391 L 12 391 Z M 12 0.0585938 " clip-rule="nonzero"/></clipPath><clipPath id="c03fb470cc"><path d="M 401.050781 11.714844 L 512.730469 11.714844 L 512.730469 123.394531 L 401.050781 123.394531 Z M 401.050781 11.714844 " clip-rule="nonzero"/></clipPath><clipPath id="880fc45099"><path d="M 456.960938 11.714844 C 426.082031 11.714844 401.050781 36.746094 401.050781 67.625 C 401.050781 98.503906 426.082031 123.535156 456.960938 123.535156 C 487.839844 123.535156 512.871094 98.503906 512.871094 67.625 C 512.871094 36.746094 487.839844 11.714844 456.960938 11.714844 Z M 456.960938 11.714844 " clip-rule="nonzero"/></clipPath><clipPath id="ef8b0190a2"><path d="M 683.679688 0.0585938 L 795.359375 0.0585938 L 795.359375 111.738281 L 683.679688 111.738281 Z M 683.679688 0.0585938 " clip-rule="nonzero"/></clipPath><clipPath id="f0c9f5a1f5"><path d="M 739.589844 0.0585938 C 708.714844 0.0585938 683.679688 25.089844 683.679688 55.96875 C 683.679688 86.847656 708.714844 111.878906 739.589844 111.878906 C 770.46875 111.878906 795.5 86.847656 795.5 55.96875 C 795.5 25.089844 770.46875 0.0585938 739.589844 0.0585938 Z M 739.589844 0.0585938 " clip-rule="nonzero"/></clipPath><clipPath id="2d5e7a4690"><path d="M 117.976562 11.714844 L 229.65625 11.714844 L 229.65625 123.394531 L 117.976562 123.394531 Z M 117.976562 11.714844 " clip-rule="nonzero"/></clipPath><clipPath id="c31a0871d6"><path d="M 173.886719 11.714844 C 143.007812 11.714844 117.976562 36.746094 117.976562 67.625 C 117.976562 98.503906 143.007812 123.535156 173.886719 123.535156 C 204.765625 123.535156 229.796875 98.503906 229.796875 67.625 C 229.796875 36.746094 204.765625 11.714844 173.886719 11.714844 Z M 173.886719 11.714844 " clip-rule="nonzero"/></clipPath><clipPath id="f9cc7ac3bb"><path d="M 112 279 L 472 279 L 472 588.441406 L 112 588.441406 Z M 112 279 " clip-rule="nonzero"/></clipPath><clipPath id="20236cdd08"><path d="M 235 280 L 595 280 L 595 588.441406 L 235 588.441406 Z M 235 280 " clip-rule="nonzero"/></clipPath><clipPath id="f0778f2435"><path d="M 357 322 L 697 322 L 697 588.441406 L 357 588.441406 Z M 357 322 " clip-rule="nonzero"/></clipPath><clipPath id="f9ebe476b8"><path d="M 456 279 L 796 279 L 796 588.441406 L 456 588.441406 Z M 456 279 " clip-rule="nonzero"/></clipPath><clipPath id="3db58bc7b7"><path d="M 594 279 L 796 279 L 796 588.441406 L 594 588.441406 Z M 594 279 " clip-rule="nonzero"/></clipPath></defs><g clip-path="url(#3921a656e2)"><path stroke-linecap="round" transform="matrix(0.749529, 0, 0, 0.749529, 0, 51.887392)" fill="none" stroke-linejoin="miter" d="M 1040.345415 694.299285 L 114.999233 694.299285 C 63.086455 694.299285 20.997549 652.215591 20.997549 600.297601 L 20.997549 93.396241 C 20.997549 74.196695 28.627336 55.77889 42.203562 42.202664 C 55.779788 28.626438 74.197593 21.001862 93.397138 21.001862 L 165.791517 21.001862 " stroke="#000000" stroke-width="42" stroke-opacity="1" stroke-miterlimit="4"/></g><path stroke-linecap="round" transform="matrix(0.00000000130818, 0.749529, -0.749529, 0.00000000130818, 189.628155, 97.031337)" fill="none" stroke-linejoin="miter" d="M 20.997432 21.001758 L 431.317365 21.001759 " stroke="#16A34A" stroke-width="42" stroke-opacity="1" stroke-miterlimit="4"/><g clip-path="url(#b420aa0071)"><g clip-path="url(#1cef667e4a)"><path stroke-linecap="butt" transform="matrix(0.749529, 0, 0, 0.749529, 117.976368, 410.324662)" fill="none" stroke-linejoin="miter" d="M 74.593934 -0.00059125 C 33.396212 -0.00059125 0.000259707 33.395361 0.000259707 74.593083 C 0.000259707 115.790806 33.396212 149.186758 74.593934 149.186758 C 115.791657 149.186758 149.187609 115.790806 149.187609 74.593083 C 149.187609 33.395361 115.791657 -0.00059125 74.593934 -0.00059125 Z M 74.593934 -0.00059125 " stroke="#000000" stroke-width="70" stroke-opacity="1" stroke-miterlimit="4"/></g></g><g clip-path="url(#691c79d8e9)"><path stroke-linecap="round" transform="matrix(0.749529, 0, 0, 0.749529, 441.224724, 84.915164)" fill="none" stroke-linejoin="miter" d="M 398.075118 21.001291 L 398.075118 295.975892 C 398.075118 347.88867 355.991423 389.972365 304.078645 389.972365 L 115.001686 389.972365 C 63.083696 389.972365 21.000001 347.88867 21.000001 295.975892 L 21.000001 37.162472 " stroke="#16A34A" stroke-width="42" stroke-opacity="1" stroke-miterlimit="4"/></g><g clip-path="url(#932aad6526)"><path stroke-linecap="round" transform="matrix(-0.663967, 0.347767, -0.347767, -0.663967, 448.636479, 123.729783)" fill="none" stroke-linejoin="miter" d="M 28.02962 54.685809 C 138.650414 9.758102 249.270801 9.77192 359.886166 54.724844 " stroke="#16A34A" stroke-width="42" stroke-opacity="1" stroke-miterlimit="4"/></g><path stroke-linecap="round" transform="matrix(0.749529, 0, 0, 0.749529, 159.250722, 213.753319)" fill="none" stroke-linejoin="miter" d="M 589.358381 197.082765 L 589.358381 116.1153 C 589.358381 71.399745 553.10647 35.147834 508.390916 35.147834 L 28.073943 35.147834 C 24.16524 35.147834 21.001797 31.97918 21.001797 28.075689 L 21.001797 20.998332 " stroke="#16A34A" stroke-width="42" stroke-opacity="1" stroke-miterlimit="4"/><g clip-path="url(#c03fb470cc)"><g clip-path="url(#880fc45099)"><path stroke-linecap="butt" transform="matrix(0.749529, 0, 0, 0.749529, 401.051282, 11.713942)" fill="none" stroke-linejoin="miter" d="M 74.593007 0.00120276 C 33.395285 0.00120276 -0.000667532 33.397155 -0.000667532 74.594877 C -0.000667532 115.7926 33.395285 149.188552 74.593007 149.188552 C 115.790729 149.188552 149.186682 115.7926 149.186682 74.594877 C 149.186682 33.397155 115.790729 0.00120276 74.593007 0.00120276 Z M 74.593007 0.00120276 " stroke="#16A34A" stroke-width="70" stroke-opacity="1" stroke-miterlimit="4"/></g></g><g clip-path="url(#ef8b0190a2)"><g clip-path="url(#f0c9f5a1f5)"><path stroke-linecap="butt" transform="matrix(0.749529, 0, 0, 0.749529, 683.681409, 0.0597493)" fill="none" stroke-linejoin="miter" d="M 74.591378 -0.00154174 C 33.398867 -0.00154174 -0.00229672 33.394411 -0.00229672 74.592133 C -0.00229672 115.789855 33.398867 149.185808 74.591378 149.185808 C 115.7891 149.185808 149.185053 115.789855 149.185053 74.592133 C 149.185053 33.394411 115.7891 -0.00154174 74.591378 -0.00154174 Z M 74.591378 -0.00154174 " stroke="#16A34A" stroke-width="70" stroke-opacity="1" stroke-miterlimit="4"/></g></g><g clip-path="url(#2d5e7a4690)"><g clip-path="url(#c31a0871d6)"><path stroke-linecap="butt" transform="matrix(0.749529, 0, 0, 0.749529, 117.976368, 11.713942)" fill="none" stroke-linejoin="miter" d="M 74.593934 0.00120276 C 33.396212 0.00120276 0.000259707 33.397155 0.000259707 74.594877 C 0.000259707 115.7926 33.396212 149.188552 74.593934 149.188552 C 115.791657 149.188552 149.187609 115.7926 149.187609 74.594877 C 149.187609 33.397155 115.791657 0.00120276 74.593934 0.00120276 Z M 74.593934 0.00120276 " stroke="#16A34A" stroke-width="70" stroke-opacity="1" stroke-miterlimit="4"/></g></g><path stroke-linecap="round" transform="matrix(0, 0.749529, -0.749529, 0, 268.085107, 410.327996)" fill="none" stroke-linejoin="miter" d="M 17.000422 16.999141 L 132.197696 16.999141 " stroke="#191919" stroke-width="34" stroke-opacity="1" stroke-miterlimit="4"/><g clip-path="url(#f9cc7ac3bb)"><path stroke-linecap="round" transform="matrix(0.481641, 0.574297, -0.574297, 0.481641, 258.489024, 405.922801)" fill="none" stroke-linejoin="miter" d="M 17.001459 17.000885 L 163.450216 17.001762 " stroke="#191919" stroke-width="34" stroke-opacity="1" stroke-miterlimit="4"/></g><path stroke-linecap="round" transform="matrix(0, 0.749529, -0.749529, 0, 341.445392, 410.327996)" fill="none" stroke-linejoin="miter" d="M 17.000422 17.000355 L 132.197696 17.000355 " stroke="#191919" stroke-width="34" stroke-opacity="1" stroke-miterlimit="4"/><path stroke-linecap="round" transform="matrix(0, 0.749529, -0.749529, 0, 391.018215, 410.643206)" fill="none" stroke-linejoin="miter" d="M 17.002017 16.998493 L 132.19408 16.998493 " stroke="#191919" stroke-width="34" stroke-opacity="1" stroke-miterlimit="4"/><g clip-path="url(#20236cdd08)"><path stroke-linecap="round" transform="matrix(0.481641, 0.574297, -0.574297, 0.481641, 381.422158, 406.237963)" fill="none" stroke-linejoin="miter" d="M 16.999132 16.998133 L 163.451881 17.002359 " stroke="#191919" stroke-width="34" stroke-opacity="1" stroke-miterlimit="4"/></g><path stroke-linecap="round" transform="matrix(0, 0.749529, -0.749529, 0, 464.378517, 410.643206)" fill="none" stroke-linejoin="miter" d="M 17.002017 16.999729 L 132.19408 16.999729 " stroke="#191919" stroke-width="34" stroke-opacity="1" stroke-miterlimit="4"/><path stroke-linecap="round" transform="matrix(0, 0.749529, -0.749529, 0, 512.875015, 410.643206)" fill="none" stroke-linejoin="miter" d="M 17.002017 17.000269 L 132.19408 17.000269 " stroke="#191919" stroke-width="34" stroke-opacity="1" stroke-miterlimit="4"/><path stroke-linecap="round" transform="matrix(0.749529, 0, 0, 0.749529, 488.574047, 410.6398)" fill="none" stroke-linejoin="miter" d="M 17.000478 17.00135 L 94.872251 17.00135 " stroke="#191919" stroke-width="34" stroke-opacity="1" stroke-miterlimit="4"/><g clip-path="url(#f0778f2435)"><path stroke-linecap="round" transform="matrix(0.749505, -0.00600541, 0.00600541, 0.749505, 488.471919, 454.112916)" fill="none" stroke-linejoin="miter" d="M 17.001056 17.001997 L 85.629671 16.999436 " stroke="#191919" stroke-width="34" stroke-opacity="1" stroke-miterlimit="4"/></g><path stroke-linecap="round" transform="matrix(0.749529, 0, 0, 0.749529, 488.574047, 496.982955)" fill="none" stroke-linejoin="miter" d="M 17.000478 17.002144 L 94.872251 17.002144 " stroke="#191919" stroke-width="34" stroke-opacity="1" stroke-miterlimit="4"/><g clip-path="url(#f9ebe476b8)"><path stroke-linecap="round" transform="matrix(0.749529, 0, 0, 0.749529, 588.249976, 410.6398)" fill="none" stroke-linejoin="miter" d="M 110.319246 132.198624 L 40.999714 132.198624 C 27.746607 132.198624 17.000282 121.452298 17.000282 108.19398 L 17.000282 41.000782 C 17.000282 27.747675 27.746607 17.00135 40.999714 17.00135 L 110.319246 17.00135 " stroke="#191919" stroke-width="34" stroke-opacity="1" stroke-miterlimit="4"/></g><path stroke-linecap="round" transform="matrix(0.749529, 0, 0, 0.749529, 692.675762, 410.6398)" fill="none" stroke-linejoin="miter" d="M 17.000274 17.00135 L 106.790983 17.00135 " stroke="#191919" stroke-width="34" stroke-opacity="1" stroke-miterlimit="4"/><g clip-path="url(#3db58bc7b7)"><path stroke-linecap="round" transform="matrix(-0.00353315, -0.749521, 0.749521, -0.00353315, 726.849101, 522.523057)" fill="none" stroke-linejoin="miter" d="M 16.997967 17.000461 L 132.196512 17.00148 " stroke="#191919" stroke-width="34" stroke-opacity="1" stroke-miterlimit="4"/></g></svg>