<svg width="231" height="181" viewBox="0 0 231 181" fill="none" xmlns="http://www.w3.org/2000/svg">
    <rect width="231" height="181" fill="white" />
    <g clip-path="url(#clip0_297_1681)">
        <mask id="mask0_297_1681" style="mask-type:luminance" maskUnits="userSpaceOnUse" x="21" y="21" width="189"
            height="139">
            <path d="M21.4758 21.0139H209.406V159.927H21.4758V21.0139Z" fill="white" />
        </mask>
        <g mask="url(#mask0_297_1681)">
            <path
                d="M205.574 156.112H41.826C32.6395 156.112 25.1915 148.665 25.1915 139.478V49.7774C25.1915 46.3799 26.5417 43.1207 28.9441 40.7182C31.3466 38.3158 34.6057 36.9666 38.0033 36.9666H50.8141"
                stroke="black" stroke-width="7.43227" stroke-linecap="round" />
        </g>
        <path d="M62.5293 47.6243L62.5293 120.234" stroke="#035D61" stroke-width="7.43227" stroke-linecap="round" />
        <mask id="mask1_297_1681" style="mask-type:luminance" maskUnits="userSpaceOnUse" x="49" y="117" width="27"
            height="28">
            <path d="M49.3293 117.875H75.6962V144.242H49.3293V117.875Z" fill="white" />
        </mask>
        <g mask="url(#mask1_297_1681)">
            <mask id="mask2_297_1681" style="mask-type:luminance" maskUnits="userSpaceOnUse" x="49" y="117" width="27"
                height="28">
                <path
                    d="M62.5294 117.875C55.2391 117.875 49.3293 123.784 49.3293 131.075C49.3293 138.365 55.2391 144.275 62.5294 144.275C69.8197 144.275 75.7294 138.365 75.7294 131.075C75.7294 123.784 69.8197 117.875 62.5294 117.875Z"
                    fill="white" />
            </mask>
            <g mask="url(#mask2_297_1681)">
                <path
                    d="M62.5294 117.875C55.2391 117.875 49.3293 123.784 49.3293 131.075C49.3293 138.365 55.2391 144.275 62.5294 144.275C69.8197 144.275 75.7294 138.365 75.7294 131.075C75.7294 123.784 69.8197 117.875 62.5294 117.875Z"
                    stroke="black" stroke-width="12.3871" />
            </g>
        </g>
        <mask id="mask3_297_1681" style="mask-type:luminance" maskUnits="userSpaceOnUse" x="87" y="21" width="123"
            height="132">
            <path d="M87.1097 21.0139H209.406V152.268H87.1097V21.0139Z" fill="white" />
        </mask>
        <g mask="url(#mask3_297_1681)">
            <path
                d="M196.089 44.7644V93.4236C196.089 102.61 188.642 110.057 179.455 110.057H145.996C136.809 110.057 129.362 102.61 129.362 93.4236V47.6243"
                stroke="#035D61" stroke-width="7.43227" stroke-linecap="round" />
        </g>
        <mask id="mask4_297_1681" style="mask-type:luminance" maskUnits="userSpaceOnUse" x="24" y="21" width="137"
            height="93">
            <path d="M24.309 21.0139H160.771V113.313H24.309V21.0139Z" fill="white" />
        </mask>
        <g mask="url(#mask4_297_1681)">
            <path d="M118.512 43.9407C104.861 60.066 87.5187 69.1464 66.488 71.1818" stroke="#035D61"
                stroke-width="7.43228" stroke-linecap="round" />
        </g>
        <path
            d="M163.366 106.341V92.0134C163.366 84.1006 156.951 77.6855 149.038 77.6855H64.0419C63.3502 77.6855 62.7904 77.1248 62.7904 76.434V75.1816"
            stroke="#035D61" stroke-width="7.43227" stroke-linecap="round" />
        <mask id="mask5_297_1681" style="mask-type:luminance" maskUnits="userSpaceOnUse" x="116" y="23" width="27"
            height="28">
            <path d="M116.161 23.7659H142.528V50.1327H116.161V23.7659Z" fill="white" />
        </mask>
        <g mask="url(#mask5_297_1681)">
            <mask id="mask6_297_1681" style="mask-type:luminance" maskUnits="userSpaceOnUse" x="116" y="23" width="27"
                height="28">
                <path
                    d="M129.361 23.7659C122.071 23.7659 116.161 29.6756 116.161 36.9659C116.161 44.2562 122.071 50.1659 129.361 50.1659C136.652 50.1659 142.561 44.2562 142.561 36.9659C142.561 29.6756 136.652 23.7659 129.361 23.7659Z"
                    fill="white" />
            </mask>
            <g mask="url(#mask6_297_1681)">
                <path
                    d="M129.361 23.7659C122.071 23.7659 116.161 29.6756 116.161 36.9659C116.161 44.2562 122.071 50.1659 129.361 50.1659C136.652 50.1659 142.561 44.2562 142.561 36.9659C142.561 29.6756 136.652 23.7659 129.361 23.7659Z"
                    stroke="#035D61" stroke-width="12.3871" />
            </g>
        </g>
        <mask id="mask7_297_1681" style="mask-type:luminance" maskUnits="userSpaceOnUse" x="182" y="21" width="28"
            height="27">
            <path d="M182.888 21.0139H209.255V47.3808H182.888V21.0139Z" fill="white" />
        </mask>
        <g mask="url(#mask7_297_1681)">
            <mask id="mask8_297_1681" style="mask-type:luminance" maskUnits="userSpaceOnUse" x="182" y="21" width="28"
                height="27">
                <path
                    d="M196.088 21.0139C188.799 21.0139 182.888 26.9236 182.888 34.2139C182.888 41.5042 188.799 47.414 196.088 47.414C203.379 47.414 209.288 41.5042 209.288 34.2139C209.288 26.9236 203.379 21.0139 196.088 21.0139Z"
                    fill="white" />
            </mask>
            <g mask="url(#mask8_297_1681)">
                <path
                    d="M196.088 21.0139C188.799 21.0139 182.888 26.9236 182.888 34.2139C182.888 41.5042 188.799 47.4139 196.088 47.4139C203.378 47.4139 209.288 41.5042 209.288 34.2139C209.288 26.9236 203.378 21.0139 196.088 21.0139Z"
                    stroke="#035D61" stroke-width="12.3871" />
            </g>
        </g>
        <mask id="mask9_297_1681" style="mask-type:luminance" maskUnits="userSpaceOnUse" x="49" y="23" width="27"
            height="28">
            <path d="M49.3293 23.7659H75.6962V50.1327H49.3293V23.7659Z" fill="white" />
        </mask>
        <g mask="url(#mask9_297_1681)">
            <mask id="mask10_297_1681" style="mask-type:luminance" maskUnits="userSpaceOnUse" x="49" y="23" width="27"
                height="28">
                <path
                    d="M62.5294 23.7659C55.2391 23.7659 49.3293 29.6756 49.3293 36.9659C49.3293 44.2562 55.2391 50.1659 62.5294 50.1659C69.8197 50.1659 75.7294 44.2562 75.7294 36.9659C75.7294 29.6756 69.8197 23.7659 62.5294 23.7659Z"
                    fill="white" />
            </mask>
            <g mask="url(#mask10_297_1681)">
                <path
                    d="M62.5294 23.7659C55.2391 23.7659 49.3293 29.6756 49.3293 36.9659C49.3293 44.2562 55.2391 50.1659 62.5294 50.1659C69.8197 50.1659 75.7294 44.2562 75.7294 36.9659C75.7294 29.6756 69.8197 23.7659 62.5294 23.7659Z"
                    stroke="#035D61" stroke-width="12.3871" />
            </g>
        </g>
        <path d="M81.7607 120.884V141.269" stroke="black" stroke-width="6.0166" stroke-linecap="round" />
        <mask id="mask11_297_1681" style="mask-type:luminance" maskUnits="userSpaceOnUse" x="47" y="86" width="86"
            height="74">
            <path d="M47.9183 86.8701H132.912V159.927H47.9183V86.8701Z" fill="white" />
        </mask>
        <g mask="url(#mask11_297_1681)">
            <path d="M82.1316 121.074L98.7845 140.931" stroke="black" stroke-width="6.01661" stroke-linecap="round" />
        </g>
        <path d="M99.0804 120.884V141.269" stroke="black" stroke-width="6.0166" stroke-linecap="round" />
        <path d="M110.785 120.959V141.343" stroke="black" stroke-width="6.0166" stroke-linecap="round" />
        <mask id="mask12_297_1681" style="mask-type:luminance" maskUnits="userSpaceOnUse" x="76" y="87" width="86"
            height="73">
            <path d="M76.9578 87.1062H161.951V159.927H76.9578V87.1062Z" fill="white" />
        </mask>
        <g mask="url(#mask12_297_1681)">
            <path d="M111.156 121.148L127.808 141.006" stroke="black" stroke-width="6.01661" stroke-linecap="round" />
        </g>
        <path d="M128.104 120.959V141.343" stroke="black" stroke-width="6.0166" stroke-linecap="round" />
        <path d="M139.554 120.959V141.343" stroke="black" stroke-width="6.0166" stroke-linecap="round" />
        <path d="M139.833 120.958H153.613" stroke="black" stroke-width="6.0166" stroke-linecap="round" />
        <mask id="mask13_297_1681" style="mask-type:luminance" maskUnits="userSpaceOnUse" x="105" y="97" width="82"
            height="63">
            <path d="M105.761 97.022H186.033V159.927H105.761V97.022Z" fill="white" />
        </mask>
        <g mask="url(#mask13_297_1681)">
            <path d="M139.833 131.197L151.978 131.1" stroke="black" stroke-width="6.0166" stroke-linecap="round" />
        </g>
        <path d="M139.833 141.343H153.613" stroke="black" stroke-width="6.0166" stroke-linecap="round" />
        <mask id="mask14_297_1681" style="mask-type:luminance" maskUnits="userSpaceOnUse" x="129" y="86" width="81"
            height="74">
            <path d="M129.134 86.8701H209.406V159.927H129.134V86.8701Z" fill="white" />
        </mask>
        <g mask="url(#mask14_297_1681)">
            <path
                d="M179.88 141.343H167.613C165.268 141.343 163.366 139.442 163.366 137.095V125.205C163.366 122.86 165.268 120.958 167.613 120.958H179.88"
                stroke="black" stroke-width="6.0166" stroke-linecap="round" />
        </g>
        <path d="M188.02 120.958H203.91" stroke="black" stroke-width="6.0166" stroke-linecap="round" />
        <mask id="mask15_297_1681" style="mask-type:luminance" maskUnits="userSpaceOnUse" x="161" y="86" width="49"
            height="74">
            <path d="M161.715 86.8701H209.406V159.927H161.715V86.8701Z" fill="white" />
        </mask>
        <g mask="url(#mask15_297_1681)">
            <path d="M196.074 141.342L195.978 120.957" stroke="black" stroke-width="6.0166" stroke-linecap="round" />
        </g>
    </g>
    <defs>
        <clipPath id="clip0_297_1681">
            <rect width="188.048" height="139" fill="white" transform="translate(21.4758 21)" />
        </clipPath>
    </defs>
</svg>