<svg width="220" height="220" viewBox="0 0 220 220" fill="none" xmlns="http://www.w3.org/2000/svg">
    <rect width="220" height="220" fill="white" />
    <g clip-path="url(#clip0_297_1681)">
        <mask id="mask0_297_1681" style="mask-type:luminance" maskUnits="userSpaceOnUse" x="15" y="40" width="189"
            height="140">
            <path d="M15.9758 40.5139H203.906V179.427H15.9758V40.5139Z" fill="white" />
        </mask>
        <g mask="url(#mask0_297_1681)">
            <path
                d="M200.074 175.612H36.326C27.1395 175.612 19.6915 168.165 19.6915 158.978V69.2774C19.6915 65.8799 21.0417 62.6207 23.4441 60.2182C25.8466 57.8158 29.1057 56.4666 32.5033 56.4666H45.3141"
                stroke="black" stroke-width="7.43227" stroke-linecap="round" />
        </g>
        <path d="M57.0293 67.1243L57.0293 139.734" stroke="#035D61" stroke-width="7.43227" stroke-linecap="round" />
        <mask id="mask1_297_1681" style="mask-type:luminance" maskUnits="userSpaceOnUse" x="43" y="137" width="28"
            height="27">
            <path d="M43.8293 137.375H70.1962V163.742H43.8293V137.375Z" fill="white" />
        </mask>
        <g mask="url(#mask1_297_1681)">
            <mask id="mask2_297_1681" style="mask-type:luminance" maskUnits="userSpaceOnUse" x="43" y="137" width="28"
                height="27">
                <path
                    d="M57.0294 137.375C49.7391 137.375 43.8293 143.284 43.8293 150.575C43.8293 157.865 49.7391 163.775 57.0294 163.775C64.3197 163.775 70.2294 157.865 70.2294 150.575C70.2294 143.284 64.3197 137.375 57.0294 137.375Z"
                    fill="white" />
            </mask>
            <g mask="url(#mask2_297_1681)">
                <path
                    d="M57.0294 137.375C49.7391 137.375 43.8293 143.284 43.8293 150.575C43.8293 157.865 49.7391 163.775 57.0294 163.775C64.3197 163.775 70.2294 157.865 70.2294 150.575C70.2294 143.284 64.3197 137.375 57.0294 137.375Z"
                    stroke="black" stroke-width="12.3871" />
            </g>
        </g>
        <mask id="mask3_297_1681" style="mask-type:luminance" maskUnits="userSpaceOnUse" x="81" y="40" width="123"
            height="132">
            <path d="M81.6097 40.5139H203.906V171.768H81.6097V40.5139Z" fill="white" />
        </mask>
        <g mask="url(#mask3_297_1681)">
            <path
                d="M190.589 64.2644V112.924C190.589 122.11 183.142 129.557 173.955 129.557H140.496C131.309 129.557 123.862 122.11 123.862 112.924V67.1243"
                stroke="#035D61" stroke-width="7.43227" stroke-linecap="round" />
        </g>
        <mask id="mask4_297_1681" style="mask-type:luminance" maskUnits="userSpaceOnUse" x="18" y="40" width="138"
            height="93">
            <path d="M18.809 40.5139H155.271V132.813H18.809V40.5139Z" fill="white" />
        </mask>
        <g mask="url(#mask4_297_1681)">
            <path d="M113.012 63.4407C99.3605 79.566 82.0187 88.6464 60.988 90.6818" stroke="#035D61"
                stroke-width="7.43228" stroke-linecap="round" />
        </g>
        <path
            d="M157.866 125.841V111.513C157.866 103.601 151.451 97.1855 143.538 97.1855H58.5419C57.8502 97.1855 57.2904 96.6248 57.2904 95.934V94.6816"
            stroke="#035D61" stroke-width="7.43227" stroke-linecap="round" />
        <mask id="mask5_297_1681" style="mask-type:luminance" maskUnits="userSpaceOnUse" x="110" y="43" width="28"
            height="27">
            <path d="M110.661 43.2659H137.028V69.6327H110.661V43.2659Z" fill="white" />
        </mask>
        <g mask="url(#mask5_297_1681)">
            <mask id="mask6_297_1681" style="mask-type:luminance" maskUnits="userSpaceOnUse" x="110" y="43" width="28"
                height="27">
                <path
                    d="M123.861 43.2659C116.571 43.2659 110.661 49.1756 110.661 56.4659C110.661 63.7562 116.571 69.6659 123.861 69.6659C131.152 69.6659 137.061 63.7562 137.061 56.4659C137.061 49.1756 131.152 43.2659 123.861 43.2659Z"
                    fill="white" />
            </mask>
            <g mask="url(#mask6_297_1681)">
                <path
                    d="M123.861 43.2659C116.571 43.2659 110.661 49.1756 110.661 56.4659C110.661 63.7562 116.571 69.6659 123.861 69.6659C131.152 69.6659 137.061 63.7562 137.061 56.4659C137.061 49.1756 131.152 43.2659 123.861 43.2659Z"
                    stroke="#035D61" stroke-width="12.3871" />
            </g>
        </g>
        <mask id="mask7_297_1681" style="mask-type:luminance" maskUnits="userSpaceOnUse" x="177" y="40" width="27"
            height="27">
            <path d="M177.388 40.5139H203.755V66.8808H177.388V40.5139Z" fill="white" />
        </mask>
        <g mask="url(#mask7_297_1681)">
            <mask id="mask8_297_1681" style="mask-type:luminance" maskUnits="userSpaceOnUse" x="177" y="40" width="27"
                height="27">
                <path
                    d="M190.588 40.5139C183.299 40.5139 177.388 46.4236 177.388 53.7139C177.388 61.0042 183.299 66.914 190.588 66.914C197.879 66.914 203.788 61.0042 203.788 53.7139C203.788 46.4236 197.879 40.5139 190.588 40.5139Z"
                    fill="white" />
            </mask>
            <g mask="url(#mask8_297_1681)">
                <path
                    d="M190.588 40.5139C183.299 40.5139 177.388 46.4236 177.388 53.7139C177.388 61.0042 183.299 66.9139 190.588 66.9139C197.878 66.9139 203.788 61.0042 203.788 53.7139C203.788 46.4236 197.878 40.5139 190.588 40.5139Z"
                    stroke="#035D61" stroke-width="12.3871" />
            </g>
        </g>
        <mask id="mask9_297_1681" style="mask-type:luminance" maskUnits="userSpaceOnUse" x="43" y="43" width="28"
            height="27">
            <path d="M43.8293 43.2659H70.1962V69.6327H43.8293V43.2659Z" fill="white" />
        </mask>
        <g mask="url(#mask9_297_1681)">
            <mask id="mask10_297_1681" style="mask-type:luminance" maskUnits="userSpaceOnUse" x="43" y="43" width="28"
                height="27">
                <path
                    d="M57.0294 43.2659C49.7391 43.2659 43.8293 49.1756 43.8293 56.4659C43.8293 63.7562 49.7391 69.6659 57.0294 69.6659C64.3197 69.6659 70.2294 63.7562 70.2294 56.4659C70.2294 49.1756 64.3197 43.2659 57.0294 43.2659Z"
                    fill="white" />
            </mask>
            <g mask="url(#mask10_297_1681)">
                <path
                    d="M57.0294 43.2659C49.7391 43.2659 43.8293 49.1756 43.8293 56.4659C43.8293 63.7562 49.7391 69.6659 57.0294 69.6659C64.3197 69.6659 70.2294 63.7562 70.2294 56.4659C70.2294 49.1756 64.3197 43.2659 57.0294 43.2659Z"
                    stroke="#035D61" stroke-width="12.3871" />
            </g>
        </g>
        <path d="M76.2607 140.384V160.769" stroke="black" stroke-width="6.0166" stroke-linecap="round" />
        <mask id="mask11_297_1681" style="mask-type:luminance" maskUnits="userSpaceOnUse" x="42" y="106" width="86"
            height="74">
            <path d="M42.4183 106.37H127.412V179.427H42.4183V106.37Z" fill="white" />
        </mask>
        <g mask="url(#mask11_297_1681)">
            <path d="M76.6316 140.574L93.2845 160.431" stroke="black" stroke-width="6.01661" stroke-linecap="round" />
        </g>
        <path d="M93.5804 140.384V160.769" stroke="black" stroke-width="6.0166" stroke-linecap="round" />
        <path d="M105.285 140.459V160.843" stroke="black" stroke-width="6.0166" stroke-linecap="round" />
        <mask id="mask12_297_1681" style="mask-type:luminance" maskUnits="userSpaceOnUse" x="71" y="106" width="86"
            height="74">
            <path d="M71.4578 106.606H156.451V179.427H71.4578V106.606Z" fill="white" />
        </mask>
        <g mask="url(#mask12_297_1681)">
            <path d="M105.656 140.648L122.308 160.506" stroke="black" stroke-width="6.01661" stroke-linecap="round" />
        </g>
        <path d="M122.604 140.459V160.843" stroke="black" stroke-width="6.0166" stroke-linecap="round" />
        <path d="M134.054 140.459V160.843" stroke="black" stroke-width="6.0166" stroke-linecap="round" />
        <path d="M134.333 140.458H148.113" stroke="black" stroke-width="6.0166" stroke-linecap="round" />
        <mask id="mask13_297_1681" style="mask-type:luminance" maskUnits="userSpaceOnUse" x="100" y="116" width="81"
            height="64">
            <path d="M100.261 116.522H180.533V179.427H100.261V116.522Z" fill="white" />
        </mask>
        <g mask="url(#mask13_297_1681)">
            <path d="M134.333 150.697L146.478 150.6" stroke="black" stroke-width="6.0166" stroke-linecap="round" />
        </g>
        <path d="M134.333 160.843H148.113" stroke="black" stroke-width="6.0166" stroke-linecap="round" />
        <mask id="mask14_297_1681" style="mask-type:luminance" maskUnits="userSpaceOnUse" x="123" y="106" width="81"
            height="74">
            <path d="M123.634 106.37H203.906V179.427H123.634V106.37Z" fill="white" />
        </mask>
        <g mask="url(#mask14_297_1681)">
            <path
                d="M174.38 160.843H162.113C159.768 160.843 157.866 158.942 157.866 156.595V144.705C157.866 142.36 159.768 140.458 162.113 140.458H174.38"
                stroke="black" stroke-width="6.0166" stroke-linecap="round" />
        </g>
        <path d="M182.52 140.458H198.41" stroke="black" stroke-width="6.0166" stroke-linecap="round" />
        <mask id="mask15_297_1681" style="mask-type:luminance" maskUnits="userSpaceOnUse" x="156" y="106" width="48"
            height="74">
            <path d="M156.215 106.37H203.906V179.427H156.215V106.37Z" fill="white" />
        </mask>
        <g mask="url(#mask15_297_1681)">
            <path d="M190.574 160.842L190.478 140.457" stroke="black" stroke-width="6.0166" stroke-linecap="round" />
        </g>
    </g>
    <defs>
        <clipPath id="clip0_297_1681">
            <rect width="188.048" height="139" fill="white" transform="translate(15.9758 40.5)" />
        </clipPath>
    </defs>
</svg>